<?xml version="1.0" encoding="utf-8"?>
<!-- License: Logo. Made by jtblabs: https://github.com/jtblabs/jtb-icons -->
<svg  width="24px" height="24px" viewBox="0 0 32 32" version="1.1" xmlns="http://www.w3.org/2000/svg">
<title>applemusic</title>
<path d="M22.962 13.643v7.138c0.001 0.031 0.002 0.067 0.002 0.104 0 0.509-0.113 0.992-0.315 1.424l0.009-0.021c-0.341 0.703-0.963 1.223-1.716 1.421l-0.018 0.004c-0.395 0.117-0.853 0.195-1.325 0.216l-0.012 0c-0.037 0.002-0.079 0.003-0.122 0.003-1.292 0-2.339-1.047-2.339-2.339 0-0.925 0.537-1.725 1.316-2.104l0.014-0.006c0.367-0.175 0.793-0.315 1.239-0.4l0.033-0.005c0.472-0.102 0.947-0.191 1.417-0.3 0.329-0.056 0.585-0.314 0.637-0.64l0.001-0.004c0.016-0.071 0.025-0.153 0.025-0.236 0-0.002 0-0.003 0-0.005v0q0-3.402-0.003-6.802c-0.001-0.083-0.013-0.162-0.034-0.238l0.002 0.006c-0.032-0.168-0.178-0.293-0.353-0.293-0.009 0-0.019 0-0.028 0.001l0.001-0c-0.222 0.016-0.425 0.046-0.623 0.088l0.030-0.005q-1.425 0.281-2.849 0.57l-4.622 0.935c-0.020 0.004-0.040 0.012-0.060 0.016-0.278 0.038-0.49 0.273-0.49 0.559 0 0.019 0.001 0.038 0.003 0.056l-0-0.002c-0.002 0.052 0 0.107 0 0.162q-0.004 4.877-0.004 9.753c0.001 0.035 0.002 0.077 0.002 0.119 0 0.509-0.099 0.995-0.28 1.44l0.009-0.026c-0.328 0.76-0.978 1.328-1.773 1.537l-0.019 0.004c-0.398 0.12-0.858 0.197-1.333 0.215l-0.010 0c-0.039 0.002-0.084 0.004-0.129 0.004-1.141 0-2.087-0.83-2.268-1.92l-0.002-0.013c-0.025-0.127-0.039-0.273-0.039-0.422 0-0.981 0.606-1.821 1.465-2.165l0.016-0.006c0.394-0.159 0.859-0.293 1.34-0.381l0.045-0.007c0.359-0.075 0.719-0.145 1.075-0.221 0.426-0.061 0.75-0.423 0.75-0.861 0-0.011-0-0.022-0.001-0.033l0 0.002v-0.187q0-5.548 0.002-11.099c0-0.003-0-0.006-0-0.009 0-0.161 0.019-0.318 0.055-0.467l-0.003 0.014c0.082-0.33 0.346-0.582 0.677-0.646l0.005-0.001c0.319-0.082 0.644-0.14 0.967-0.206 0.916-0.187 1.832-0.37 2.749-0.555l2.837-0.575c0.837-0.167 1.675-0.337 2.512-0.504 0.226-0.052 0.508-0.099 0.795-0.13l0.033-0.003c0.023-0.003 0.049-0.005 0.076-0.005 0.337 0 0.611 0.271 0.616 0.607v0c0.010 0.083 0.015 0.179 0.015 0.277 0 0.001 0 0.001 0 0.002v-0q0.004 3.58 0 7.163zM30.988 8.657c0-0.036 0.001-0.078 0.001-0.12 0-0.928-0.11-1.83-0.317-2.695l0.016 0.079c-0.388-1.613-1.372-2.948-2.699-3.788l-0.025-0.015c-0.67-0.437-1.46-0.754-2.308-0.902l-0.038-0.005c-0.578-0.105-1.253-0.173-1.94-0.187l-0.014-0c-0.050-0.004-0.104-0.012-0.155-0.016h-15.024c-0.19 0.012-0.379 0.021-0.569 0.032-0.988 0.021-1.927 0.202-2.801 0.519l0.061-0.019c-1.632 0.625-2.909 1.867-3.565 3.433l-0.015 0.041c-0.212 0.511-0.371 1.105-0.45 1.725l-0.004 0.035c-0.064 0.429-0.109 0.938-0.125 1.455l-0 0.020c0 0.040-0.009 0.077-0.012 0.116v15.274c0.012 0.175 0.021 0.354 0.034 0.53 0.023 1.075 0.25 2.091 0.641 3.019l-0.020-0.054c0.76 1.706 2.216 2.985 3.997 3.49l0.044 0.011c0.471 0.138 1.021 0.24 1.588 0.283l0.028 0.002c0.694 0.066 1.387 0.075 2.083 0.075h13.784c0.692-0 1.373-0.046 2.041-0.133l-0.079 0.008c1.078-0.121 2.051-0.482 2.894-1.028l-0.026 0.016c1.030-0.673 1.837-1.611 2.333-2.718l0.016-0.040c0.207-0.478 0.368-1.035 0.457-1.616l0.005-0.039c0.11-0.69 0.173-1.485 0.173-2.294 0-0.090-0.001-0.179-0.002-0.268l0 0.013q-0.004-7.123-0.004-14.237z" fill="url(#paint0_linear_596_28671)"></path><defs><linearGradient id="paint0_linear_596_28671" x1="16" y1="31.876" x2="16" y2="0.689689" gradientUnits="userSpaceOnUse"><stop stop-color="#FA233B"></stop><stop offset="1" stop-color="#FB5C74"></stop></linearGradient></defs>
</svg>
